name rise42.5664peak47.7979fall81.9185.mot
datacolumns 19
datarows 29
range 16.02494100000000 16.07160600000000
endheader
time	ground_force1_vx	ground_force1_vy	ground_force1_vz	ground_force1_px	ground_force1_py	ground_force1_pz	ground_force2_vx	ground_force2_vy	ground_force2_vz	ground_force2_px	ground_force2_py	ground_force2_pz	ground_torque1_x	ground_torque1_y	ground_torque1_z	ground_torque2_x	ground_torque2_y	ground_torque2_z	
16.02494100000000	-7.06018200000000	41.14246700000000	-9.99324200000000	0.29588900000000	0.00000000000000	0.08835800000000	-47.88145900000000	781.69165599999997	-52.20735400000000	0.10083100000000	0.00000000000000	-0.07781400000000	0.00000000000000	-5.96066800000000	0.00000000000000	0.00000000000000	-16.22365800000000	0.00000000000000	
16.02661200000000	-7.68938700000000	48.20007700000000	-11.20301800000000	0.29833900000000	0.00000000000000	0.08953300000000	-48.50616100000000	778.46459900000002	-51.61801600000000	0.10013700000000	0.00000000000000	-0.07764000000000	0.00000000000000	-6.73500500000000	0.00000000000000	0.00000000000000	-16.16151600000000	0.00000000000000	
16.02827500000000	-8.16972700000000	55.34681300000000	-12.29090100000000	0.30060000000000	0.00000000000000	0.09059900000000	-49.14413500000000	775.09374600000001	-51.00325300000000	0.09943600000000	0.00000000000000	-0.07746100000000	0.00000000000000	-7.44980600000000	0.00000000000000	0.00000000000000	-16.10056400000000	0.00000000000000	
16.02993600000000	-8.48150100000000	62.49284400000000	-13.23081000000000	0.30270900000000	0.00000000000000	0.09157200000000	-49.79426600000000	771.57728099999997	-50.36357900000000	0.09872800000000	0.00000000000000	-0.07728000000000	0.00000000000000	-8.08949300000000	0.00000000000000	0.00000000000000	-16.04072500000000	0.00000000000000	
16.03160600000000	-8.61322000000000	69.57128700000000	-14.00587900000000	0.30469600000000	0.00000000000000	0.09246500000000	-50.45533200000000	767.91336300000000	-49.69955600000000	0.09801500000000	0.00000000000000	-0.07709400000000	0.00000000000000	-8.64372600000000	0.00000000000000	0.00000000000000	-15.98190200000000	0.00000000000000	
16.03327200000000	-8.56144100000000	76.54025300000001	-14.60851800000000	0.30658500000000	0.00000000000000	0.09328700000000	-51.12601000000000	764.10013600000002	-49.01179100000000	0.09729700000000	0.00000000000000	-0.07690500000000	0.00000000000000	-9.10750200000000	0.00000000000000	0.00000000000000	-15.92398600000000	0.00000000000000	
16.03493700000000	-8.32997600000000	83.38249600000000	-15.03971400000000	0.30839300000000	0.00000000000000	0.09404700000000	-51.80487700000000	760.13572799999997	-48.30093900000000	0.09657500000000	0.00000000000000	-0.07671200000000	0.00000000000000	-9.48079000000000	0.00000000000000	0.00000000000000	-15.86684500000000	0.00000000000000	
16.03660200000000	-7.92864200000000	90.10308999999999	-15.30774200000000	0.31013700000000	0.00000000000000	0.09475200000000	-52.49041600000000	756.01826100000005	-47.56769600000000	0.09585100000000	0.00000000000000	-0.07651500000000	0.00000000000000	-9.76782800000000	0.00000000000000	0.00000000000000	-15.81033700000000	0.00000000000000	
16.03827400000000	-7.37173400000000	96.72565800000000	-15.42649800000000	0.31182800000000	0.00000000000000	0.09540800000000	-53.18101500000000	751.74585700000000	-46.81280400000000	0.09512500000000	0.00000000000000	-0.07631500000000	0.00000000000000	-9.97619000000000	0.00000000000000	0.00000000000000	-15.75430100000000	0.00000000000000	
16.03994200000000	-6.67639800000000	103.28773000000000	-15.41366100000000	0.31347600000000	0.00000000000000	0.09602000000000	-53.87497400000000	747.31664899999998	-46.03704500000000	0.09439800000000	0.00000000000000	-0.07611100000000	0.00000000000000	-10.11572800000000	0.00000000000000	0.00000000000000	-15.69855900000000	0.00000000000000	
16.04160900000000	-5.86105300000000	109.83576200000000	-15.28886900000000	0.31508800000000	0.00000000000000	0.09659200000000	-54.57051100000000	742.72878900000001	-45.24124000000000	0.09367100000000	0.00000000000000	-0.07590300000000	0.00000000000000	-10.19752400000000	0.00000000000000	0.00000000000000	-15.64292000000000	0.00000000000000	
16.04326900000000	-4.94398200000000	116.42026700000000	-15.07204100000000	0.31667100000000	0.00000000000000	0.09712900000000	-55.26576200000000	737.98046199999999	-44.42625100000000	0.09294700000000	0.00000000000000	-0.07569200000000	0.00000000000000	-10.23290900000000	0.00000000000000	0.00000000000000	-15.58717900000000	0.00000000000000	
16.04493800000000	-3.94217900000000	123.09145599999999	-14.78197000000000	0.31822900000000	0.00000000000000	0.09763200000000	-55.95879300000000	733.06989599999997	-43.59297400000000	0.09222500000000	0.00000000000000	-0.07547600000000	0.00000000000000	-10.23262800000000	0.00000000000000	0.00000000000000	-15.53111500000000	0.00000000000000	
16.04660400000000	-2.87049100000000	129.89560399999999	-14.43523600000000	0.31976500000000	0.00000000000000	0.09810600000000	-56.64759800000000	727.99537699999996	-42.74234000000000	0.09150800000000	0.00000000000000	-0.07525700000000	0.00000000000000	-10.20619300000000	0.00000000000000	0.00000000000000	-15.47449400000000	0.00000000000000	
16.04827100000000	-1.74107700000000	136.87233400000000	-14.04548500000000	0.32128200000000	0.00000000000000	0.09855200000000	-57.33011200000000	722.75526300000001	-41.87531400000000	0.09079700000000	0.00000000000000	-0.07503400000000	0.00000000000000	-10.16143400000000	0.00000000000000	0.00000000000000	-15.41707100000000	0.00000000000000	
16.04993900000000	-0.56316800000000	144.05283700000001	-13.62304400000000	0.32278200000000	0.00000000000000	0.09897300000000	-58.00421200000000	717.34800099999995	-40.99289200000000	0.09009200000000	0.00000000000000	-0.07480800000000	0.00000000000000	-10.10425400000000	0.00000000000000	0.00000000000000	-15.35858700000000	0.00000000000000	
16.05160700000000	0.65690900000000	151.45899800000001	-13.17486100000000	0.32426700000000	0.00000000000000	0.09937100000000	-58.66772900000000	711.77214300000003	-40.09609600000000	0.08939600000000	0.00000000000000	-0.07457700000000	0.00000000000000	-10.03856500000000	0.00000000000000	0.00000000000000	-15.29877600000000	0.00000000000000	
16.05327500000000	1.91549300000000	159.10334599999999	-12.70470000000000	0.32573500000000	0.00000000000000	0.09974700000000	-59.31845000000000	706.02635799999996	-39.18597600000000	0.08870900000000	0.00000000000000	-0.07434300000000	0.00000000000000	-9.96639000000000	0.00000000000000	0.00000000000000	-15.23735900000000	0.00000000000000	
16.05493600000000	3.21119300000000	166.98965600000000	-12.21354000000000	0.32718800000000	0.00000000000000	0.10010300000000	-59.95412600000000	700.10945400000003	-38.26360800000000	0.08803300000000	0.00000000000000	-0.07410500000000	0.00000000000000	-9.88807100000000	0.00000000000000	0.00000000000000	-15.17404900000000	0.00000000000000	
16.05660600000000	4.54438300000000	175.11406099999999	-11.70010800000000	0.32862500000000	0.00000000000000	0.10044000000000	-60.57248100000000	694.02039000000002	-37.33008600000000	0.08737000000000	0.00000000000000	-0.07386300000000	0.00000000000000	-9.80257900000000	0.00000000000000	0.00000000000000	-15.10855400000000	0.00000000000000	
16.05827000000000	5.91667300000000	183.46647600000000	-11.16148200000000	0.33004600000000	0.00000000000000	0.10076000000000	-61.17122100000000	687.75828799999999	-36.38652700000000	0.08672000000000	0.00000000000000	-0.07361800000000	0.00000000000000	-9.70785400000000	0.00000000000000	0.00000000000000	-15.04057200000000	0.00000000000000	
16.05993500000000	7.33035900000000	192.03218799999999	-10.59369900000000	0.33144800000000	0.00000000000000	0.10106400000000	-61.74803500000000	681.32245300000000	-35.43406500000000	0.08608400000000	0.00000000000000	-0.07336900000000	0.00000000000000	-9.60116800000000	0.00000000000000	0.00000000000000	-14.96980000000000	0.00000000000000	
16.06160600000000	8.78794200000000	200.79344699999999	-9.99233900000000	0.33283200000000	0.00000000000000	0.10135200000000	-62.30060900000000	674.71237799999994	-34.47384700000000	0.08546500000000	0.00000000000000	-0.07311500000000	0.00000000000000	-9.47947000000000	0.00000000000000	0.00000000000000	-14.89593100000000	0.00000000000000	
16.06326900000000	10.29169500000000	209.73095699999999	-9.35302900000000	0.33419500000000	0.00000000000000	0.10162500000000	-62.82663300000000	667.92775700000004	-33.50703600000000	0.08486300000000	0.00000000000000	-0.07285900000000	0.00000000000000	-9.33968800000000	0.00000000000000	0.00000000000000	-14.81865400000000	0.00000000000000	
16.06496300000000	11.84334100000000	218.82516000000001	-8.67185100000000	0.33553600000000	0.00000000000000	0.10188600000000	-63.32380400000000	660.96849399999996	-32.53480300000000	0.08427900000000	0.00000000000000	-0.07259800000000	0.00000000000000	-9.17898600000000	0.00000000000000	0.00000000000000	-14.73766000000000	0.00000000000000	
16.06660000000000	13.44381000000000	228.05727500000000	-7.94564900000000	0.33685300000000	0.00000000000000	0.10213300000000	-63.78984200000000	653.83470799999998	-31.55833100000000	0.08371400000000	0.00000000000000	-0.07233400000000	0.00000000000000	-8.99495000000000	0.00000000000000	0.00000000000000	-14.65264300000000	0.00000000000000	
16.06827100000000	15.09310500000000	237.41005400000000	-7.17222000000000	0.33814400000000	0.00000000000000	0.10236800000000	-64.22248999999999	646.52674100000002	-30.57880600000000	0.08317000000000	0.00000000000000	-0.07206600000000	0.00000000000000	-8.78571800000000	0.00000000000000	0.00000000000000	-14.56329700000000	0.00000000000000	
16.06993900000000	16.79025100000000	246.86825500000000	-6.35040700000000	0.33940700000000	0.00000000000000	0.10259200000000	-64.61952800000000	639.04516200000000	-29.59742300000000	0.08264800000000	0.00000000000000	-0.07179400000000	0.00000000000000	-8.55004700000000	0.00000000000000	0.00000000000000	-14.46932600000000	0.00000000000000	
16.07160600000000	18.53331600000000	256.41886699999998	-5.48010300000000	0.34064000000000	0.00000000000000	0.10280600000000	-64.97878200000000	631.39077199999997	-28.61537700000000	0.08214700000000	0.00000000000000	-0.07151900000000	0.00000000000000	-8.28732100000000	0.00000000000000	0.00000000000000	-14.37043600000000	0.00000000000000	
